<mxfile host="app.diagrams.net" modified="2024-01-02T14:27:12.461Z" agent="Mozilla/5.0 (Windows NT 10.0; Win64; x64) AppleWebKit/537.36 (KHTML, like Gecko) Chrome/120.0.0.0 Safari/537.36" version="22.1.16" etag="qbqY2kuXRxXrCPdRBNNV" type="device">
  <diagram id="XT-WKSKduMd3AAV95OXn" name="第1頁">
    <mxGraphModel dx="794" dy="459" grid="1" gridSize="10" guides="1" tooltips="1" connect="1" arrows="1" fold="1" page="1" pageScale="1" pageWidth="827" pageHeight="1169" math="0" shadow="0">
      <root>
        <mxCell id="0" />
        <mxCell id="1" parent="0" />
        <mxCell id="qus1_pxT7iYyDbfCWf6Y-1" value="管理員" style="shape=umlActor;verticalLabelPosition=bottom;verticalAlign=top;html=1;fillStyle=auto;gradientColor=none;fillColor=default;" parent="1" vertex="1">
          <mxGeometry x="170" y="200" width="30" height="60" as="geometry" />
        </mxCell>
        <mxCell id="qus1_pxT7iYyDbfCWf6Y-6" value="個人中心" style="rounded=1;whiteSpace=wrap;html=1;" parent="1" vertex="1">
          <mxGeometry x="350" y="90" width="120" height="36" as="geometry" />
        </mxCell>
        <mxCell id="qus1_pxT7iYyDbfCWf6Y-7" value="系統首頁" style="rounded=1;whiteSpace=wrap;html=1;" parent="1" vertex="1">
          <mxGeometry x="350" y="40" width="120" height="36" as="geometry" />
        </mxCell>
        <mxCell id="qus1_pxT7iYyDbfCWf6Y-8" value="用戶管理" style="rounded=1;whiteSpace=wrap;html=1;" parent="1" vertex="1">
          <mxGeometry x="350" y="140" width="120" height="36" as="geometry" />
        </mxCell>
        <mxCell id="qus1_pxT7iYyDbfCWf6Y-9" value="商家管理" style="rounded=1;whiteSpace=wrap;html=1;" parent="1" vertex="1">
          <mxGeometry x="350" y="185" width="120" height="36" as="geometry" />
        </mxCell>
        <mxCell id="qus1_pxT7iYyDbfCWf6Y-10" value="商品分類管理" style="rounded=1;whiteSpace=wrap;html=1;" parent="1" vertex="1">
          <mxGeometry x="350" y="230" width="120" height="36" as="geometry" />
        </mxCell>
        <mxCell id="qus1_pxT7iYyDbfCWf6Y-11" value="美食信息管理" style="rounded=1;whiteSpace=wrap;html=1;" parent="1" vertex="1">
          <mxGeometry x="350" y="280" width="120" height="36" as="geometry" />
        </mxCell>
        <mxCell id="qus1_pxT7iYyDbfCWf6Y-12" value="系統管理" style="rounded=1;whiteSpace=wrap;html=1;" parent="1" vertex="1">
          <mxGeometry x="350" y="330" width="120" height="36" as="geometry" />
        </mxCell>
        <mxCell id="qus1_pxT7iYyDbfCWf6Y-13" value="訂單管理" style="rounded=1;whiteSpace=wrap;html=1;" parent="1" vertex="1">
          <mxGeometry x="350" y="380" width="120" height="36" as="geometry" />
        </mxCell>
        <mxCell id="qus1_pxT7iYyDbfCWf6Y-16" value="" style="endArrow=none;html=1;rounded=0;entryX=0;entryY=0.5;entryDx=0;entryDy=0;exitX=1;exitY=0.3333333333333333;exitDx=0;exitDy=0;exitPerimeter=0;" parent="1" target="qus1_pxT7iYyDbfCWf6Y-9" edge="1" source="qus1_pxT7iYyDbfCWf6Y-1">
          <mxGeometry width="50" height="50" relative="1" as="geometry">
            <mxPoint x="240" y="230" as="sourcePoint" />
            <mxPoint x="410" y="200" as="targetPoint" />
          </mxGeometry>
        </mxCell>
        <mxCell id="qus1_pxT7iYyDbfCWf6Y-17" value="" style="endArrow=none;html=1;rounded=0;entryX=0;entryY=0.5;entryDx=0;entryDy=0;exitX=1;exitY=0.3333333333333333;exitDx=0;exitDy=0;exitPerimeter=0;" parent="1" target="qus1_pxT7iYyDbfCWf6Y-10" edge="1" source="qus1_pxT7iYyDbfCWf6Y-1">
          <mxGeometry width="50" height="50" relative="1" as="geometry">
            <mxPoint x="240" y="230" as="sourcePoint" />
            <mxPoint x="360" y="210" as="targetPoint" />
          </mxGeometry>
        </mxCell>
        <mxCell id="qus1_pxT7iYyDbfCWf6Y-18" value="" style="endArrow=none;html=1;rounded=0;entryX=0;entryY=0.5;entryDx=0;entryDy=0;exitX=1;exitY=0.3333333333333333;exitDx=0;exitDy=0;exitPerimeter=0;" parent="1" target="qus1_pxT7iYyDbfCWf6Y-11" edge="1" source="qus1_pxT7iYyDbfCWf6Y-1">
          <mxGeometry width="50" height="50" relative="1" as="geometry">
            <mxPoint x="240" y="230" as="sourcePoint" />
            <mxPoint x="370" y="220" as="targetPoint" />
          </mxGeometry>
        </mxCell>
        <mxCell id="qus1_pxT7iYyDbfCWf6Y-19" value="" style="endArrow=none;html=1;rounded=0;entryX=0;entryY=0.5;entryDx=0;entryDy=0;exitX=1;exitY=0.3333333333333333;exitDx=0;exitDy=0;exitPerimeter=0;" parent="1" target="qus1_pxT7iYyDbfCWf6Y-12" edge="1" source="qus1_pxT7iYyDbfCWf6Y-1">
          <mxGeometry width="50" height="50" relative="1" as="geometry">
            <mxPoint x="240" y="230" as="sourcePoint" />
            <mxPoint x="360" y="305" as="targetPoint" />
          </mxGeometry>
        </mxCell>
        <mxCell id="qus1_pxT7iYyDbfCWf6Y-21" value="" style="endArrow=none;html=1;rounded=0;entryX=0;entryY=0.5;entryDx=0;entryDy=0;exitX=1;exitY=0.3333333333333333;exitDx=0;exitDy=0;exitPerimeter=0;" parent="1" target="qus1_pxT7iYyDbfCWf6Y-13" edge="1" source="qus1_pxT7iYyDbfCWf6Y-1">
          <mxGeometry width="50" height="50" relative="1" as="geometry">
            <mxPoint x="240" y="230" as="sourcePoint" />
            <mxPoint x="370" y="365" as="targetPoint" />
          </mxGeometry>
        </mxCell>
        <mxCell id="qus1_pxT7iYyDbfCWf6Y-22" value="" style="endArrow=none;html=1;rounded=0;exitX=1;exitY=0.3333333333333333;exitDx=0;exitDy=0;exitPerimeter=0;" parent="1" edge="1" source="qus1_pxT7iYyDbfCWf6Y-1">
          <mxGeometry width="50" height="50" relative="1" as="geometry">
            <mxPoint x="240" y="230" as="sourcePoint" />
            <mxPoint x="350" y="160" as="targetPoint" />
          </mxGeometry>
        </mxCell>
        <mxCell id="qus1_pxT7iYyDbfCWf6Y-23" value="" style="endArrow=none;html=1;rounded=0;entryX=0;entryY=0.5;entryDx=0;entryDy=0;exitX=1;exitY=0.3333333333333333;exitDx=0;exitDy=0;exitPerimeter=0;" parent="1" target="qus1_pxT7iYyDbfCWf6Y-6" edge="1" source="qus1_pxT7iYyDbfCWf6Y-1">
          <mxGeometry width="50" height="50" relative="1" as="geometry">
            <mxPoint x="250" y="220" as="sourcePoint" />
            <mxPoint x="360" y="173" as="targetPoint" />
          </mxGeometry>
        </mxCell>
        <mxCell id="qus1_pxT7iYyDbfCWf6Y-24" value="" style="endArrow=none;html=1;rounded=0;entryX=0;entryY=0.5;entryDx=0;entryDy=0;exitX=1;exitY=0.3333333333333333;exitDx=0;exitDy=0;exitPerimeter=0;" parent="1" target="qus1_pxT7iYyDbfCWf6Y-7" edge="1" source="qus1_pxT7iYyDbfCWf6Y-1">
          <mxGeometry width="50" height="50" relative="1" as="geometry">
            <mxPoint x="250" y="150" as="sourcePoint" />
            <mxPoint x="360" y="115" as="targetPoint" />
          </mxGeometry>
        </mxCell>
      </root>
    </mxGraphModel>
  </diagram>
</mxfile>
